{"title":"Drive.Hard.2014.480p.BRRip.XviD.AC3-N3kr4","uid":10284056,"size":1970344290,"categoryP":"video","categoryS":"hd___movies","magnet":"?xt=urn:btih:a0d9edb31b58bfc34950b74203942b9edb46fa29&amp;dn=Drive.Hard.2014.480p.BRRip.XviD.AC3-N3kr4&amp;tr=udp%3A%2F%2Ftracker.openbittorrent.com%3A80&amp;tr=udp%3A%2F%2Fopen.demonii.com%3A1337&amp;tr=udp%3A%2F%2Ftracker.coppersurfer.tk%3A6969&amp;tr=udp%3A%2F%2Fexodus.desync.com%3A6969","seeders":1,"leechers":0,"uploader":"Falcon.G13","files":1,"time":1401753713,"description":" &lt;a href=&quot;http://i.imgur.com/o2KYqoz.jpg&quot; rel=&quot;nofollow&quot; target=&quot;_NEW&quot;&gt;http://i.imgur.com/o2KYqoz.jpg&lt;/a&gt;\n &lt;a href=&quot;\nhttp://i.imgur.com/QX2uVsR.jpg&quot; rel=&quot;nofollow&quot; target=&quot;_NEW&quot;&gt;\nhttp://i.imgur.com/QX2uVsR.jpg&lt;/a&gt; &lt;a href=&quot;\nhttp://i.imgur.com/r86X4xI.jpg&quot; rel=&quot;nofollow&quot; target=&quot;_NEW&quot;&gt;\nhttp://i.imgur.com/r86X4xI.jpg&lt;/a&gt; &lt;a href=&quot;\nhttp://i.imgur.com/VZqVPTC.jpg&quot; rel=&quot;nofollow&quot; target=&quot;_NEW&quot;&gt;\nhttp://i.imgur.com/VZqVPTC.jpg&lt;/a&gt; &lt;a href=&quot;\nhttp://i.imgur.com/KXNK94U.jpg&quot; rel=&quot;nofollow&quot; target=&quot;_NEW&quot;&gt;\nhttp://i.imgur.com/KXNK94U.jpg&lt;/a&gt; &lt;a href=&quot;\nhttp://i.imgur.com/JHmCZrX.jpg&quot; rel=&quot;nofollow&quot; target=&quot;_NEW&quot;&gt;\nhttp://i.imgur.com/JHmCZrX.jpg&lt;/a&gt; &lt;a href=&quot;\nhttp://i.imgur.com/ffVjXUf.jpg&quot; rel=&quot;nofollow&quot; target=&quot;_NEW&quot;&gt;\nhttp://i.imgur.com/ffVjXUf.jpg&lt;/a&gt; &lt;a href=&quot;\nhttp://i.imgur.com/WRZrZGT.jpg&quot; rel=&quot;nofollow&quot; target=&quot;_NEW&quot;&gt;\nhttp://i.imgur.com/WRZrZGT.jpg&lt;/a&gt;\n\nGeneral\nComplete name :Drive.Hard.2014.480p.BRRip.XviD.AC3-N3kr4.avi\nFormat : AVI\nFormat/Info : Audio Video Interleave\nFormat profile : OpenDML\nFile size : 1.84 GiB\nDuration : 1h 35mn\nOverall bit rate : 2 742 Kbps\nWriting application : Lavf55.7.100\n\nVideo\nID : 0\nFormat : MPEG-4 Visual\nFormat profile : Advanced Simple@L1\nFormat settings, BVOP : No\nFormat settings, QPel : No\nFormat settings, GMC : No warppoints\nFormat settings, Matrix : Default (H.263)\nCodec ID : XVID\nCodec ID/Hint : XviD\nDuration : 1h 35mn\nBit rate : 2 091 Kbps\nWidth : 720 pixels\nHeight : 400 pixels\nDisplay aspect ratio : 16:9\nFrame rate : 23.976 fps\nColor space : YUV\nChroma subsampling : 4:2:0\nBit depth : 8 bits\nScan type : Progressive\nCompression mode : Lossy\nBits/(Pixel*Frame) : 0.303\nStream size : 1.40 GiB (76%)\nWriting library : Lavc55.12.100\n\nAudio\nID : 1\nFormat : AC-3\nFormat/Info : Audio Coding 3\nMode extension : CM (complete main)\nFormat settings, Endianness : Big\nCodec ID : 2000\nDuration : 1h 35mn\nBit rate mode : Constant\nBit rate : 640 Kbps\nChannel(s) : 6 channels\nChannel positions : Front: L C R, Side: L R, LFE\nSampling rate : 48.0 KHz\nBit depth : 16 bits\nCompression mode : Lossy\nStream size : 439 MiB (23%)\nAlignment : Aligned on interleaves\nInterleave, duration : 32 ms (0.77 video frame)\nInterleave, preload duration : 32 ms","torrent":{"xt":"urn:btih:a0d9edb31b58bfc34950b74203942b9edb46fa29","amp;dn":"Drive.Hard.2014.480p.BRRip.XviD.AC3-N3kr4","amp;tr":["udp%3A%2F%2Ftracker.openbittorrent.com%3A80","udp%3A%2F%2Fopen.demonii.com%3A1337","udp%3A%2F%2Ftracker.coppersurfer.tk%3A6969","udp%3A%2F%2Fexodus.desync.com%3A6969"],"infoHash":"a0d9edb31b58bfc34950b74203942b9edb46fa29","infoHashBuffer":{"type":"Buffer","data":[160,217,237,179,27,88,191,195,73,80,183,66,3,148,43,158,219,70,250,41]},"announce":[],"urlList":[]}}